<svg width="96" height="96" viewBox="0 0 96 96" fill="none" xmlns="http://www.w3.org/2000/svg">
<path d="M45.68 60.68L69 84C71 85.9361 73.6808 87.0085 76.4643 86.9859C79.2478 86.9633 81.9109 85.8475 83.8792 83.8792C85.8475 81.9109 86.9632 79.2478 86.9858 76.4643C87.0084 73.6808 85.9361 71 84 69L60.492 45.492M45.68 60.68L55.664 48.56C56.932 47.024 58.624 46.056 60.496 45.496C62.696 44.84 65.148 44.744 67.468 44.936C70.5953 45.2045 73.7385 44.6506 76.5856 43.3293C79.4327 42.0079 81.8848 39.965 83.6986 37.4032C85.5123 34.8415 86.6247 31.85 86.9252 28.7256C87.2258 25.6012 86.7041 22.4525 85.412 19.592L72.308 32.7C70.1156 32.193 68.1096 31.0807 66.5185 29.4895C64.9273 27.8984 63.8149 25.8924 63.308 23.7L76.412 10.596C73.5515 9.30385 70.4028 8.78217 67.2784 9.08273C64.154 9.38329 61.1625 10.4956 58.6008 12.3094C56.039 14.1231 53.9961 16.5753 52.6747 19.4224C51.3534 22.2695 50.7994 25.4127 51.068 28.54C51.432 32.844 50.784 37.596 47.452 40.34L47.044 40.68M45.68 60.68L27.06 83.292C26.1576 84.392 25.0348 85.2909 23.764 85.9308C22.4931 86.5707 21.1024 86.9374 19.6813 87.0074C18.2602 87.0773 16.8402 86.8489 15.5127 86.3369C14.1852 85.8249 12.9795 85.0406 11.9734 84.0345C10.9674 83.0284 10.1831 81.8228 9.67105 80.4953C9.15904 79.1678 8.93066 77.7478 9.0006 76.3267C9.07055 74.9056 9.43727 73.5148 10.0772 72.244C10.7171 70.9732 11.616 69.8504 12.716 68.948L40.064 46.428L23.636 30H18L8.99999 15L15 9L30 18V23.636L47.04 40.676L40.06 46.424M73.5 73.5L63 63M19.468 76.5H19.5V76.532H19.468V76.5Z" stroke="#0F172A" stroke-width="1.5" stroke-linecap="round" stroke-linejoin="round"/>
</svg>
